<svg width="152" height="38" viewBox="0 0 152 38" fill="none" xmlns="http://www.w3.org/2000/svg">
<path d="M22.1177 8.92789H8.32701V15.937H21.8582V23.9322H8.32701V37.2742H0V0.932617H22.1177V8.92789Z" fill="#317B72"/>
<path d="M34.0934 29.2789H47.1039V37.2742H25.7664V0.932617H34.0934V29.2789Z" fill="#317B72"/>
<path d="M69.6587 37.9998C64.4033 37.9998 59.9265 36.1824 56.2317 32.5492C52.5368 28.9144 50.715 24.4501 50.715 19.1034C50.715 13.7568 52.5368 9.29071 56.2317 5.65758C59.9265 2.02275 64.4016 0.207031 69.6587 0.207031C74.9158 0.207031 79.3909 2.02445 83.0857 5.65758C86.7805 9.29242 88.6023 13.7568 88.6023 19.1034C88.6023 24.4518 86.7805 28.9161 83.0857 32.5492C79.3909 36.1824 74.9141 37.9998 69.6587 37.9998ZM69.6587 29.9006C72.6774 29.9006 75.1753 28.9144 77.2037 26.8892C79.2338 24.864 80.2736 22.2681 80.2736 19.1017C80.2736 15.9353 79.2321 13.3395 77.2037 11.3142C75.1736 9.28901 72.6757 8.30281 69.6587 8.30281C66.64 8.30281 64.0908 9.28901 62.0607 11.3142C60.0306 13.3378 59.042 15.9353 59.042 19.1017C59.042 22.2681 60.0306 24.864 62.0607 26.8892C64.0908 28.9144 66.64 29.9006 69.6587 29.9006Z" fill="#317B72"/>
<path d="M139.614 0.932617H128.998L117.994 33.2203L112.595 23.9305C116.602 21.8542 119.308 17.8055 119.308 13.3922C119.308 9.91411 118.111 7.00658 115.665 4.56575C113.22 2.12663 110.305 0.932617 106.819 0.932617H92.246V37.2724H100.573V25.3323H104.529L111.398 37.2724H125.72L127.541 31.563H141.071L142.893 37.2724H152L139.614 0.932617ZM106.819 18.0644H100.573V8.72009H106.819C109.108 8.72009 110.981 10.7436 110.981 13.3922C110.981 16.0392 109.108 18.0644 106.819 18.0644ZM130.039 23.7755L134.306 10.4319L138.573 23.7755H130.039Z" fill="#317B72"/>
</svg>
