<svg width="72" height="67" viewBox="0 0 72 67" fill="none" xmlns="http://www.w3.org/2000/svg">
<path d="M36 9.37154C38.5941 9.37154 40.6971 7.27365 40.6971 4.68577C40.6971 2.09789 38.5941 0 36 0C33.4059 0 31.3029 2.09789 31.3029 4.68577C31.3029 7.27365 33.4059 9.37154 36 9.37154Z" fill="#FDB6B0"/>
<path d="M38.6806 45.9845C38.0557 43.9167 37.173 41.9579 36.0717 40.1473C33.3843 35.7341 29.3975 32.1929 24.6355 30.0655C22.4039 29.0606 20.0084 28.3742 17.5003 28.0471C16.4041 27.904 15.2892 27.8291 14.1538 27.8291H0.892344C0.767704 29.0418 0.704529 30.2733 0.704529 31.5201V31.6343C0.764288 51.0212 16.5339 66.7239 35.9778 66.7341H36.0034C36.029 66.7 36.0529 66.6643 36.0734 66.6251C36.0939 66.591 36.1127 66.5553 36.1332 66.5212C38.4433 62.6871 39.7734 58.1904 39.7734 53.3871V53.3087C39.7614 50.7623 39.3858 48.3044 38.6806 45.9845ZM31.4856 58.9858C19.4552 57.0219 9.96891 47.3301 8.34687 35.2146H14.1538C14.9579 35.2146 15.7502 35.264 16.5339 35.3628C19.5184 35.7494 22.3117 36.8515 24.7106 38.5582C26.7049 39.9685 28.4208 41.7978 29.7441 43.9798C29.908 44.2523 30.0719 44.5282 30.2204 44.8161C31.6188 47.4187 32.3632 50.3416 32.3684 53.3309V53.3854C32.3684 55.2999 32.0713 57.1888 31.4856 58.9858Z" fill="#FDB6B0"/>
<path d="M71.1025 27.8267H57.9863C56.8064 27.8267 55.6403 27.905 54.4997 28.0634C51.9898 28.4041 49.5995 29.1024 47.3781 30.1159C42.6725 32.2484 38.7301 35.7657 36.0717 40.1432C34.9602 41.964 34.074 43.933 33.4526 46.0162C32.7491 48.3309 32.3769 50.7905 32.3666 53.3284V53.3829C32.3666 58.1964 33.7001 62.6983 36.0222 66.5375C36.0376 66.5664 36.0563 66.592 36.0717 66.6209C36.0922 66.5869 36.111 66.5511 36.1315 66.517L36.181 66.73C55.5805 66.6312 71.2852 50.9148 71.2955 31.5415V31.516C71.2972 30.2709 71.2323 29.0394 71.1025 27.8267ZM40.6441 58.9646C40.0636 57.1745 39.7717 55.2889 39.7717 53.3846V53.3063C39.787 50.2829 40.5451 47.3294 41.9827 44.7029C42.1125 44.4611 42.2508 44.2175 42.3994 43.9807C43.6782 41.8737 45.3258 40.0921 47.2296 38.7022C49.6353 36.941 52.4457 35.7981 55.461 35.3876C56.2891 35.2684 57.1325 35.2139 57.9845 35.2139H63.6429C62.0277 47.2851 52.6113 56.9462 40.6441 58.9646Z" fill="#FDB6B0"/>
<path d="M54.498 28.0635C51.9898 28.4042 49.5994 29.1059 47.3764 30.116C45.6878 25.4762 41.2229 22.148 35.9966 22.148C30.7907 22.148 26.3378 25.4506 24.6355 30.0615C22.4073 29.0582 20.0101 28.3684 17.4985 28.0448C20.0835 20.3271 27.3895 14.7642 35.9948 14.7642C44.6104 14.7659 51.9164 20.3373 54.498 28.0635Z" fill="#FDB6B0"/>
</svg>
